<?xml version="1.0" encoding="utf-8"?>
<svg version="1.1" id="Layer_1" xmlns="http://www.w3.org/2000/svg" xmlns:xlink="http://www.w3.org/1999/xlink" x="0px" y="0px"
	 viewBox="0 0 183.2 35.4" style="enable-background:new 0 0 183.2 35.4;" xml:space="preserve">
<style type="text/css">
	.st0{clip-path:url(#SVGID_2_);fill:#00AEEF;}
</style>
<g>
	<defs>
		<rect id="SVGID_1_" y="0" width="183.2" height="35.4"/>
	</defs>
	<clipPath id="SVGID_2_">
		<use xlink:href="#SVGID_1_"  style="overflow:visible;"/>
	</clipPath>
	<path class="st0" d="M93.5,7.4v24.7c0,1.8-1.5,3.3-3.3,3.3s-3.3-1.5-3.3-3.3V7.4H70c-5.6-0.1-10.2,4.5-10.3,10.1c0,0.1,0,0.1,0,0.2
		c0,5.8,4.5,10.3,10.7,10.3H77c1.8,0,3.3,1.5,3.3,3.3c0,1.8-1.5,3.3-3.3,3.3h-7c-9.5-0.1-17.2-7.8-17.3-17.3C52.7,7.8,60.5,0,69.6,0
		h30.9c1.8,0,3.3,1.4,3.3,3.2c0,0,0,0.1,0,0.1c0,1.8-1.4,3.3-3.2,3.3c0,0-0.1,0-0.1,0h-7L93.5,7.4z"/>
	<path class="st0" d="M7,32.1c0,1.8-1.4,3.3-3.2,3.3c0,0-0.1,0-0.1,0c-2.1,0-3.7-1.2-3.7-3.3V3.7c0-1.8,1.4-3.3,3.2-3.3
		c0,0,0.1,0,0.1,0h16.5c1.9,0,3.5,1.4,3.7,3.3c0,1.8-1.4,3.3-3.2,3.3c0,0-0.1,0-0.1,0H7V32.1z M11.5,14c-1.7-0.1-3.1,1.2-3.3,2.9
		c0,1.6,1.2,2.8,2.7,2.9c0,0,0.1,0,0.1,0h7.8c1.6,0,2.9-1.3,2.9-2.9c0-1.6-1.3-2.9-2.9-2.9L11.5,14z"/>
	<path class="st0" d="M38.7,23.5c1.7-0.1,3.1,1.2,3.3,2.9c-0.2,1.7-1.6,3-3.3,2.9h-4.1c-1.7,0.1-3.1-1.2-3.3-2.9
		c0.2-1.7,1.6-2.9,3.3-2.9L38.7,23.5z M30.1,8.2L19.4,30.5c-0.8,1.7,0,3.7,1.6,4.5c1.7,0.8,3.7,0,4.5-1.6l10.7-22.2l10.7,22.2
		c0.8,1.7,2.8,2.4,4.5,1.6c1.8-0.5,2.7-2.4,2.2-4.2c0-0.1-0.1-0.2-0.1-0.4L42.8,8.2l-3.3-6.6c-0.6-1-1.7-1.7-2.9-1.6
		c-1.3-0.1-2.6,0.5-3.3,1.6L30.1,8.2z"/>
	<path class="st0" d="M129.3,26.4c0.1,4.7-3.6,8.5-8.2,8.6c-0.1,0-0.3,0-0.4,0h-12.4c-1.8,0-3.3-1.5-3.3-3.3c0-1.8,1.5-3.3,3.3-3.3
		h11.5c1,0.1,1.9-0.6,2.1-1.6c0-0.6-0.3-1.2-0.8-1.6l-13.2-9.1c-2-1.4-3-3.8-2.9-6.2c0-5,4.1-9,9.1-9.1h9.9c1.7-0.3,3.4,0.8,3.7,2.5
		c0,0.2,0.1,0.5,0,0.8c0,1.8-1.4,3.3-3.2,3.3c0,0-0.1,0-0.1,0h-10.3c-1.1-0.1-2,0.8-2.1,1.8c0,0.1,0,0.2,0,0.2c0,0.8,0,0.8,0.8,1.2
		l13.6,9.5C128.3,21.7,129.4,24,129.3,26.4"/>
	<path class="st0" d="M151.9,14c1.6,0,2.9,1.3,2.9,2.9c0,1.6-1.3,2.9-2.9,2.9h-7.8c-1.6,0-2.8-1.2-2.9-2.7c0,0,0-0.1,0-0.1
		c0-1.6,1.2-2.9,3.3-2.9H151.9z M132.2,3.7c0-1.8,1.4-3.3,3.2-3.3c0,0,0.1,0,0.1,0h44.5c1.8,0,3.3,1.4,3.3,3.2c0,0,0,0.1,0,0.1
		c0,1.8-1.4,3.3-3.2,3.3c0,0-0.1,0-0.1,0h-7v24.7c0,1.8-1.5,3.3-3.3,3.3c-1.8,0-3.3-1.5-3.3-3.3v0V7h-26.8v20.6h12.8
		c1.8,0,3.3,1.5,3.3,3.3c0,1.8-1.5,3.3-3.3,3.3h0h-16.5c-1.8,0-3.3-1.4-3.3-3.2c0,0,0-0.1,0-0.1L132.2,3.7z"/>
</g>
</svg>
